<?xml version="1.0" encoding="utf-8"?>
<!-- Generator: Adobe Illustrator 27.7.0, SVG Export Plug-In . SVG Version: 6.00 Build 0)  -->
<svg version="1.1" id="レイヤー_1" xmlns="http://www.w3.org/2000/svg" xmlns:xlink="http://www.w3.org/1999/xlink" x="0px"
	 y="0px" width="464.87px" height="140.04px" viewBox="0 0 464.87 140.04" style="enable-background:new 0 0 464.87 140.04;"
	 xml:space="preserve">
<style type="text/css">
	.st0{fill:#00EEE3;}
</style>
<path class="st0" d="M438.74,47.93c3.89-6.11,3.17-14.3-2.17-19.64c-6.17-6.17-16.17-6.17-22.34,0c-6.17,6.17-6.17,16.17,0,22.34
	c5.33,5.33,13.53,6.05,19.64,2.17l22.52,22.52L464.87,90v21.15l-10.57,18.32l-18.32,10.57h-21.15l-18.32-10.57l-10.57-18.32V90
	l8.79-15.23L411.96,92c-3.89,6.11-3.17,14.3,2.17,19.64c6.17,6.17,16.17,6.17,22.34,0c6.17-6.17,6.17-16.17,0-22.34
	c-5.33-5.33-13.53-6.05-19.64-2.17l-22.42-22.42l-8.47-14.68V28.89l10.57-18.32L414.83,0h21.15l18.32,10.57l10.57,18.32v21.15
	l-8.79,15.23L438.74,47.93z M177.62,75.49h14.02V29.69h-14.02V75.49z M256.16,63.61h-32.64V50.8h-14.02v24.69h52.25l8.43-8.26V29.69
	h-14.02V63.61z M155.68,70.42l6.34,5.07l-24.49-0.01L115.7,56.65L87.2,75.48l-31.84,0L33.39,56.07L1.98,77.08V29.69h13.35v23.7
	l34.3-23.7h23.18l-28.55,19.1l26.57,22.92l63.61-42.02h21.23V70.42z M142.32,39.07l-15.55,10.26l15.55,13.41V39.07z M354.66,75.49
	l-6.49-5.19V29.69h-14.02v33.93h-32.64V29.69h-14.02v37.54l8.43,8.26H354.66z M318.17,93.64h-7.89v17.57l-14.84-13.34v-4.23h-7.89
	v26.96h7.89v-13.31l14.43,13.31h0.41v0.01l10.43-0.01l-2.55-2.29V93.64z M354.84,112.92c-2.3,0-4.17,1.87-4.17,4.17
	c0,2.3,1.87,4.17,4.17,4.17s4.17-1.87,4.17-4.17C359.01,114.78,357.15,112.92,354.84,112.92z M348.09,109.21
	c0,6.59-5.34,11.93-11.93,11.93s-11.93-5.34-11.93-11.93s5.34-11.93,11.93-11.93S348.09,102.62,348.09,109.21z M341.7,109.21
	c0-3.06-2.48-5.55-5.55-5.55c-3.06,0-5.55,2.48-5.55,5.55c0,3.06,2.48,5.55,5.55,5.55C339.22,114.75,341.7,112.27,341.7,109.21z
	 M3.97,15.02H1.65l-0.58,1.36H0l2.75-6.21h0.16l2.75,6.21h-1.1L3.97,15.02z M3.57,14.09l-0.76-1.78l-0.76,1.78H3.57z M7.57,12.56
	l3.68,3.94h0.17V10.3h-1.04v3.82L6.7,10.18H6.53v6.19h1.04V12.56z M13.92,10.3h-1.06v6.08h1.06V10.3z M16.51,13.03l1.8,3.43h0.12
	l1.81-3.43l0.39,3.35h1.06l-0.77-6.21h-0.17l-2.37,4.38l-2.36-4.38h-0.17l-0.77,6.21h1.03L16.51,13.03z M23.37,16.38H22.3l2.75-6.21
	h0.16l2.75,6.21h-1.1l-0.58-1.36h-2.32L23.37,16.38z M24.35,14.09h1.52l-0.76-1.78L24.35,14.09z M30.3,16.38h1.05v-5.12h1.83V10.3
	h-4.72v0.96h1.83V16.38z M35.32,10.3h-1.06v6.08h1.06V10.3z M36.57,14.31c-0.02-0.19-0.04-0.44-0.04-0.91v-0.12
	c0-0.48,0.02-0.72,0.04-0.92c0.16-1.22,1.15-2.15,2.48-2.15c1.33,0,2.33,0.93,2.48,2.15c0.02,0.2,0.04,0.44,0.04,0.92v0.12
	c0,0.48-0.02,0.72-0.04,0.91c-0.15,1.22-1.15,2.16-2.48,2.16C37.73,16.47,36.73,15.54,36.57,14.31z M37.59,13.39
	c0,0.48,0.02,0.69,0.03,0.82c0.09,0.73,0.66,1.29,1.44,1.29c0.78,0,1.35-0.56,1.44-1.29c0.02-0.13,0.03-0.35,0.03-0.82v-0.1
	c0-0.48-0.02-0.69-0.03-0.82c-0.09-0.73-0.65-1.29-1.44-1.29c-0.78,0-1.34,0.56-1.44,1.29c-0.02,0.13-0.03,0.35-0.03,0.82V13.39z
	 M43.84,12.56l3.68,3.94h0.17V10.3h-1.04v3.82l-3.68-3.93H42.8v6.19h1.04V12.56z M53.18,15.51c-0.61,0-1.1-0.35-1.2-0.89h-1.03
	c0.1,1.09,1,1.84,2.2,1.84c1.25,0,2.13-0.8,2.13-1.9c0-0.73-0.35-1.21-0.89-1.46c-0.54-0.25-1.23-0.31-1.61-0.44
	c-0.38-0.13-0.61-0.34-0.61-0.7c0-0.46,0.37-0.8,0.91-0.8c0.53,0,0.92,0.3,1.02,0.81h1.01c-0.08-1.04-0.91-1.76-2.02-1.76
	c-1.14,0-1.95,0.78-1.95,1.81c0,0.65,0.3,1.16,0.85,1.44c0.54,0.27,1.35,0.34,1.71,0.49c0.37,0.15,0.54,0.35,0.54,0.71
	C54.24,15.16,53.82,15.51,53.18,15.51z M60.21,15.41h-2.72v-1.77h2.47v-0.96h-2.47v-1.42h2.72V10.3h-3.77v6.08h3.77V15.41z
	 M62.55,16.38h-1.06V10.3h2.55c1.07,0,1.81,0.72,1.81,1.75c0,0.99-0.73,1.73-1.78,1.73h-0.16l2.31,2.6H64.9l-2.35-2.69V16.38z
	 M62.55,12.93h1.41c0.5,0,0.83-0.36,0.83-0.83c0-0.48-0.33-0.83-0.83-0.83h-1.42V12.93z M68.2,10.3h-1.06v6.08h1.06V10.3z
	 M73.42,15.41h-2.72v-1.77h2.47v-0.96h-2.47v-1.42h2.72V10.3h-3.77v6.08h3.77V15.41z M76.61,15.51c-0.61,0-1.1-0.35-1.2-0.89h-1.03
	c0.1,1.09,1,1.84,2.2,1.84c1.25,0,2.13-0.8,2.13-1.9c0-0.73-0.35-1.21-0.89-1.46c-0.54-0.25-1.23-0.31-1.61-0.44
	c-0.38-0.13-0.61-0.34-0.61-0.7c0-0.46,0.37-0.8,0.91-0.8c0.53,0,0.91,0.3,1.02,0.81h1.01c-0.09-1.04-0.91-1.76-2.03-1.76
	c-1.14,0-1.95,0.78-1.95,1.81c0,0.65,0.3,1.16,0.85,1.44c0.54,0.27,1.35,0.34,1.71,0.49c0.37,0.15,0.54,0.35,0.54,0.71
	C77.66,15.16,77.24,15.51,76.61,15.51z"/>
</svg>
